PathFileType	4	(X/Y/Z)	C:\Users\Basilio\Documents\Thesis Gigler\squatting_fais\c3dfiles\039\SLS_pre_front2\markers_experimental.trc
DataRate	CameraRate	NumFrames	NumMarkers	Units	OrigDataRate	OrigDataStartFrame	OrigNumFrames
200.000000	200.000000	4	62	mm	200.000000	1839	2102
Frame#	Time	FHD			LBHD			RBHD			C7			T10			CLAV			LSHO			LUUPA			LMUPA			LDUPA			LLEP			LMEP			LRAD			LUL			LRFIN			RSHO			RUPA1			RMUPA			RDUPA			RLEP			RMEP			RRAD			RUL			RUFIN			LASI			RASI			USACR			LSACR			RSACR			LTHI1			LTHI2			LTHI3			LTHI4			LLFC			LMFC			LTIB1			LTIB2			LTIB3			LTIB4			LLMAL			LMMAL			LHEE			LMT1			LMT2			LMT5			RTHI			RTHI2			RTHI3			RTHI4			RLFC			RMFC			RTIB1			RTIB2			RTIB3			RTIB4			RLMAL			RMMAL			RHEE			RMT1			RMT2			RMT5			*61			
		X1	Y1	Z1	X2	Y2	Z2	X3	Y3	Z3	X4	Y4	Z4	X5	Y5	Z5	X6	Y6	Z6	X7	Y7	Z7	X8	Y8	Z8	X9	Y9	Z9	X10	Y10	Z10	X11	Y11	Z11	X12	Y12	Z12	X13	Y13	Z13	X14	Y14	Z14	X15	Y15	Z15	X16	Y16	Z16	X17	Y17	Z17	X18	Y18	Z18	X19	Y19	Z19	X20	Y20	Z20	X21	Y21	Z21	X22	Y22	Z22	X23	Y23	Z23	X24	Y24	Z24	X25	Y25	Z25	X26	Y26	Z26	X27	Y27	Z27	X28	Y28	Z28	X29	Y29	Z29	X30	Y30	Z30	X31	Y31	Z31	X32	Y32	Z32	X33	Y33	Z33	X34	Y34	Z34	X35	Y35	Z35	X36	Y36	Z36	X37	Y37	Z37	X38	Y38	Z38	X39	Y39	Z39	X40	Y40	Z40	X41	Y41	Z41	X42	Y42	Z42	X43	Y43	Z43	X44	Y44	Z44	X45	Y45	Z45	X46	Y46	Z46	X47	Y47	Z47	X48	Y48	Z48	X49	Y49	Z49	X50	Y50	Z50	X51	Y51	Z51	X52	Y52	Z52	X53	Y53	Z53	X54	Y54	Z54	X55	Y55	Z55	X56	Y56	Z56	X57	Y57	Z57	X58	Y58	Z58	X59	Y59	Z59	X60	Y60	Z60	X61	Y61	Z61	X62	Y62	Z62	

1840	9.195	-133.9071044921875	1652.95068359375	-927.5982666015627	-301.8432922363282	1728.609985351563	-1011.693115234375	-239.9501647949219	1722.749633789063	-884.4443969726565	-422.2526855468751	1599.166137695313	-918.4981689453127	-511.6977844238282	1291.859619140625	-867.9034423828127	-304.5498962402344	1488.544677734375	-930.6430664062502	-394.4817199707032	1528.462768554688	-1107.630981445313	-482.2697143554689	1318.662109375	-1189.470825195313	-437.3899841308595	1303.122802734375	-1203.39501953125	-471.3006591796876	1252.844970703125	-1208.98095703125	-460.266082763672	1190.410888671875	-1226.556030273438	-465.7095947265626	1163.652099609375	-1147.5517578125	-237.0432891845704	1004.572021484375	-1245.825805664063	-296.4388732910157	969.4940185546877	-1277.295532226563	-182.033920288086	955.4876708984377	-1292.2705078125	-295.1000061035157	1555.044677734375	-741.9432983398439	-415.7131347656251	1388.468505859375	-613.1737060546876	-383.1882019042969	1351.608642578125	-615.3361206054689	-433.7337341308595	1323.8740234375	-596.6878051757814	-437.1793823242189	1263.010864257813	-580.1453857421876	-486.2887573242189	1247.115478515625	-648.1939086914064	-305.2821044921876	997.995056152344	-640.2748413085939	-357.2123718261719	983.1079711914065	-585.8444213867189	-262.1487426757813	922.026062011719	-614.5725708007814	-384.4496154785157	1095.190673828125	-996.8711547851565	-348.7178039550782	1089.2421875	-775.3327636718752	-542.3374633789064	1153.693115234375	-854.1339111328127	-551.0091552734376	1121.193237304688	-880.9114990234377	-540.8752441406251	1120.893676757813	-822.266540527344	-410.0647277832032	817.825378417969	-1066.368041992188	-361.4401550292969	747.9171752929689	-1073.713623046875	-314.7318725585938	759.4666748046876	-1068.801879882813	-375.8230285644532	690.5765380859376	-1061.618286132813	-351.7659606933594	573.9006958007814	-1065.517700195313	-314.7745056152344	547.8655395507814	-952.5557861328127	-293.1239318847657	425.5214843750001	-1049.329345703125	-362.6944274902344	389.8387451171876	-1090.409545898438	-322.6542053222657	382.7149963378907	-1074.68212890625	-326.7145690917969	300.8948059082032	-1038.462280273438	-400.1607971191407	141.148666381836	-1076.206909179688	-381.6560668945313	138.1088562011719	-991.2199707031252	-472.8089599609376	109.4728164672852	-1038.649536132813	-246.1080932617188	61.65637969970705	-1019.194580078125	-252.6462707519532	60.25453567504884	-1061.303100585938	-301.8783264160157	44.66637420654298	-1111.589111328125	-353.5649414062501	822.4710693359377	-687.6361083984376	-302.9883117675782	778.011657714844	-684.4702758789064	-272.8786315917969	786.7774658203127	-695.5690307617189	-314.3009643554688	693.0581054687501	-689.5803833007814	-325.9458923339844	553.2348022460939	-705.5731201171876	-291.9292907714844	541.3504028320314	-818.0932617187502	-294.3469238281251	342.7457885742188	-714.9385986328126	-381.4733886718751	280.9139709472657	-707.1696777343751	-335.6251220703126	270.2989196777344	-706.3572387695314	-318.1146850585938	220.1385040283204	-735.8827514648439	-386.732635498047	127.4926147460938	-712.0599975585939	-355.7248535156251	144.4747772216797	-795.713073730469	-455.4023742675782	106.2863464355469	-767.3580322265626	-230.0005187988282	63.51671600341798	-776.552185058594	-233.4109954833985	63.71722412109376	-730.5991210937501	-290.1618957519532	43.16984176635743	-682.1342773437501	nan	nan	nan	
1841	9.200000000000001	-134.3403472900391	1654.243896484375	-926.3745727539065	-302.1449584960938	1729.268432617188	-1010.756042480469	-240.8460845947266	1723.7001953125	-883.249938964844	-422.7772216796876	1599.405883789063	-918.007263183594	-511.4494628906251	1291.823608398438	-868.059509277344	-304.6405944824219	1488.924194335938	-930.1605224609377	-394.4516906738282	1528.76220703125	-1107.017944335938	-482.0856323242189	1319.397583007813	-1189.9970703125	-437.0569458007814	1303.721435546875	-1203.1201171875	-470.1138305664064	1253.614379882813	-1209.523559570313	-459.0038452148439	1191.288208007813	-1227.00439453125	-465.0355224609376	1164.135009765625	-1148.0986328125	-236.2807159423829	1004.66796875	-1245.778686523438	-295.2215881347657	969.5877075195315	-1277.710693359375	-181.5565795898438	955.5610961914065	-1292.13818359375	-295.6396484375001	1555.331176757813	-741.4700927734376	-415.631561279297	1388.099487304688	-612.9071655273439	-382.9011535644532	1351.3984375	-615.0966186523439	-433.2546691894532	1323.38232421875	-596.4243774414064	-436.3485717773439	1262.41650390625	-579.8242797851564	-485.4744262695314	1246.27685546875	-648.0593872070314	-302.0847167968751	998.9047851562502	-641.0269775390626	-354.1406555175782	983.438903808594	-586.3626708984376	-258.5387878417969	923.2429809570315	-615.4951171875001	-383.3631896972657	1095.524291992188	-997.1584472656252	-348.3269348144532	1089.461303710938	-775.5065917968752	-541.8942871093751	1153.656616210938	-854.3032836914065	-550.4993896484376	1121.21044921875	-881.2344360351565	-540.1484375000001	1120.81640625	-822.700134277344	-409.3391418457032	817.8697509765627	-1066.487548828125	-360.9082946777344	747.9099121093751	-1073.804077148438	-314.2035217285157	759.5455932617189	-1068.904418945313	-375.3821105957032	690.6558227539064	-1061.822143554688	-351.4631347656251	573.8666992187501	-1065.615112304688	-314.5379028320313	547.8580322265626	-952.651306152344	-292.6926269531251	425.2332458496095	-1049.259887695313	-362.5426025390626	389.8756713867189	-1090.431518554688	-322.3965454101563	382.7801208496094	-1074.795654296875	-326.6454467773438	300.8426818847657	-1038.454956054688	-400.122528076172	141.1255493164063	-1076.260864257813	-381.6476135253907	138.1178283691407	-991.285583496094	-472.8218994140626	109.4359817504883	-1038.661254882813	-246.1039581298829	61.75421142578126	-1019.171752929688	-252.6328887939454	60.33956909179689	-1061.332153320313	-301.8871459960938	44.67097091674805	-1111.579345703125	-352.6416320800782	822.480407714844	-688.3992309570314	-302.6423645019532	777.9289550781252	-684.8235473632814	-272.4119567871094	786.8181152343752	-695.9228515625001	-313.9998474121094	693.0325927734376	-690.0003662109376	-325.8262023925782	553.2019042968751	-705.8506469726564	-291.9210205078126	541.2707519531251	-818.4066162109377	-294.2317810058594	342.7169494628907	-715.1322631835939	-381.3677978515626	280.8492736816407	-707.2073364257814	-335.5219421386719	270.2637023925782	-706.3758544921876	-318.0327148437501	220.0039062500001	-735.9622802734376	-386.6975097656251	127.5143432617188	-712.1448974609376	-355.6940612792969	144.4031066894532	-795.7725830078127	-455.3508300781251	106.2436676025391	-767.3549804687501	-229.9898223876954	63.44894409179689	-776.6174316406252	-233.4006958007813	63.61623382568361	-730.6789550781251	-290.1578063964844	43.19978332519532	-682.1555175781251	nan	nan	nan	
1842	9.205	-135.0453033447266	1655.199829101563	-924.5071411132815	-302.5278930664063	1729.92431640625	-1009.7412109375	-241.6776885986329	1724.477294921875	-882.1150512695315	-423.3082275390626	1599.668579101563	-917.4797973632815	-511.257781982422	1291.743041992188	-868.1973876953127	-304.9641113281251	1489.543090820313	-929.4055786132815	-394.2620544433595	1529.651611328125	-1106.71728515625	-481.2612915039064	1320.102416992188	-1190.322998046875	-435.4324340820314	1304.546875	-1203.5458984375	-469.4936523437501	1254.451538085938	-1210.079467773438	-457.6952514648439	1191.895629882813	-1227.55078125	-465.4659423828126	1164.948974609375	-1149.01171875	-235.4318389892579	1004.792785644531	-1245.724609375	-294.5275878906251	969.9501953125002	-1277.967041015625	-181.0067138671875	955.4246826171877	-1291.894775390625	-296.1991882324219	1555.665649414063	-740.9971923828126	-415.6610412597657	1387.725952148438	-612.6842041015626	-382.7026977539063	1351.1591796875	-614.6777343750001	-432.8528747558595	1322.823486328125	-596.0554199218751	-435.439178466797	1261.759155273438	-579.5455932617189	-484.6451721191407	1245.491943359375	-647.8529663085939	-298.9676818847657	999.6336059570315	-641.6024780273439	-350.9829101562501	983.6790771484377	-586.9876708984376	-254.8078308105469	924.222106933594	-616.6134643554689	-382.8713378906251	1095.697143554688	-997.135925292969	-347.5281982421876	1089.730590820313	-775.6680908203127	-541.3450927734376	1153.642578125	-854.5637207031252	-549.8204345703126	1121.118286132813	-881.5550537109377	-539.5115356445314	1120.656860351563	-822.9444580078127	-408.588104248047	818.0367431640627	-1066.642333984375	-360.3495178222657	748.0044555664064	-1073.865234375	-313.6120605468751	759.5739746093751	-1068.940551757813	-374.8705139160157	690.7504882812501	-1061.947265625	-351.1570434570313	573.8519287109376	-1065.70654296875	-314.4403991699219	547.7905883789064	-952.699157714844	-292.8253784179688	425.3079528808595	-1049.343017578125	-362.3674926757813	389.8577880859376	-1090.496337890625	-322.1609497070313	382.6953735351563	-1074.889282226563	-326.5919189453126	300.7862548828126	-1038.435180664063	-400.1292724609376	141.1310119628907	-1076.2822265625	-381.6547851562501	138.099349975586	-991.2942504882815	-472.8315429687501	109.4099502563477	-1038.699096679688	-246.1013641357422	61.82511138916017	-1019.200134277344	-252.6529541015626	60.38925552368165	-1061.396362304688	-301.8143310546876	44.6848258972168	-1111.56884765625	-352.2109680175782	822.4985351562502	-688.6609497070314	-302.2077026367188	777.9050292968752	-685.1051025390626	-271.9312744140626	786.7464599609377	-696.2683105468751	-313.8089294433594	692.9392089843751	-690.1674194335939	-325.7278747558594	553.1625976562501	-706.1097412109376	-291.8263854980469	541.1463623046876	-818.7336425781252	-294.1405029296876	342.6249084472657	-715.2826538085939	-381.1667175292969	280.6158447265626	-707.2188720703126	-335.4585876464844	270.1573181152344	-706.4702148437501	-317.9748229980469	219.9662170410157	-736.0728759765626	-386.6355895996095	127.4822616577149	-712.1660766601564	-355.6735534667969	144.3059539794922	-795.828552246094	-455.3729553222657	106.2277450561524	-767.3463134765626	-229.9397277832032	63.35398864746095	-776.6633911132815	-233.3798980712891	63.52001571655275	-730.7292480468751	-290.1012878417969	43.25548934936524	-682.1260375976564	nan	nan	nan	
1843	9.210000000000001	-135.6069488525391	1656.302612304688	-922.937683105469	-302.8614501953126	1730.62109375	-1008.825256347656	-242.667465209961	1725.065551757813	-880.6799316406252	-423.6167602539064	1599.758056640625	-916.9044189453127	-510.957244873047	1291.665649414063	-868.3248291015627	-305.0613403320313	1490.3203125	-928.8183593750002	-394.1567993164064	1530.223266601563	-1106.209106445313	-480.2873840332032	1320.840942382813	-1190.5302734375	-434.6399230957032	1305.268432617188	-1203.466796875	-468.3993225097657	1255.048828125	-1210.369506835938	-456.4619140625001	1192.56689453125	-1227.82177734375	-464.3018798828126	1165.57373046875	-1149.57666015625	-234.8428039550782	1004.570007324219	-1245.553100585938	-293.9418640136719	970.2940063476565	-1278.158935546875	-180.4698486328125	955.2215576171877	-1291.4912109375	-296.9570922851563	1555.78515625	-740.0313720703126	-415.6397094726564	1387.038208007813	-612.3355712890626	-382.3429260253907	1350.921508789063	-614.0861816406251	-432.383270263672	1322.232421875	-595.8248901367189	-434.9122314453126	1261.232788085938	-579.2830200195314	-483.7731018066407	1244.640258789063	-647.6330566406251	-296.0319213867188	1000.5	-641.9376220703126	-347.6644897460938	983.7586059570315	-587.6852416992189	-250.8382415771485	925.516296386719	-617.1110229492189	-382.1732177734376	1095.874145507813	-997.2648925781252	-346.8858337402344	1089.9755859375	-775.7443847656252	-540.7670898437501	1153.550048828125	-854.8287353515627	-549.2209472656251	1121.131591796875	-881.808532714844	-539.0479736328126	1120.546508789063	-823.1472778320315	-407.7984924316407	818.2194824218752	-1066.814208984375	-359.6817321777344	748.0745239257814	-1073.909057617188	-313.1501770019532	759.6119995117189	-1068.8740234375	-374.2622070312501	690.8101806640626	-1062.094360351563	-350.7921142578126	573.8303222656251	-1065.7734375	-314.3523864746094	547.7435913085939	-952.669860839844	-292.3570251464844	425.1221008300782	-1049.141479492188	-362.1738281250001	389.7917785644532	-1090.534057617188	-321.8898925781251	382.6983947753907	-1074.824462890625	-326.4928588867188	300.7417907714844	-1038.424194335938	-400.0943908691407	141.1102447509766	-1076.2822265625	-381.6534118652344	138.0669860839844	-991.3170166015627	-472.8084411621095	109.3745040893555	-1038.727661132813	-246.0606231689454	61.83628463745119	-1019.186584472656	-252.6625518798829	60.41461563110353	-1061.3603515625	-301.8136596679688	44.68286895751954	-1111.556640625	-351.7533874511719	822.499206542969	-689.0170898437501	-301.8360290527344	777.8213500976565	-685.4579467773439	-271.5398254394532	786.728454589844	-696.6256713867189	-313.6938476562501	692.7711791992189	-690.2182006835939	-325.6071166992188	553.2047729492189	-706.3851928710939	-291.7432250976563	541.0407714843751	-819.1107177734377	-294.0082702636719	342.5319519042969	-715.4946289062501	-381.0706176757813	280.4653320312501	-707.3369140625001	-335.3142395019532	270.1362304687501	-706.6008911132814	-317.9425354003907	219.8671417236329	-736.2100219726564	-386.5597534179689	127.4628295898438	-712.2341918945314	-355.7189636230469	144.2461242675782	-795.934020996094	-455.3459777832032	106.2165145874024	-767.3585815429689	-229.8537597656251	63.20901489257814	-776.702575683594	-233.2986602783204	63.47798538208009	-730.7003173828126	-290.0794372558594	43.27170562744141	-682.1588134765626	nan	nan	nan	
